<svg width="17" height="17" viewBox="0 0 17 17" fill="none" xmlns="http://www.w3.org/2000/svg">
<path d="M0.411621 16.7294C0.482209 16.447 0.552798 16.1647 0.65868 15.8823C0.941033 14.7882 1.25868 13.7294 1.54103 12.6353C1.54103 12.6 1.54103 12.6 1.54103 12.5647C1.1175 11.7882 0.799857 11.0117 0.65868 10.1294C0.588092 9.74114 0.552797 9.3529 0.517503 8.96467C0.482209 8.54114 0.517503 8.11761 0.552797 7.69408C0.693974 6.45879 1.1175 5.32938 1.78809 4.27055C2.56456 3.10585 3.5528 2.1882 4.78809 1.55291C5.45868 1.19996 6.19986 0.952906 6.94103 0.811729C7.32927 0.741141 7.7175 0.705847 8.07044 0.670553C9.37633 0.635259 10.6116 0.847024 11.7763 1.41173C12.5528 1.76467 13.2234 2.25879 13.8587 2.82349C14.5293 3.45879 15.1293 4.23526 15.5528 5.04702C15.9057 5.71761 16.1528 6.3882 16.294 7.12937C16.3999 7.69408 16.4704 8.25879 16.4351 8.82349C16.3999 9.91761 16.1528 10.9411 15.694 11.9294C15.341 12.7058 14.8469 13.4117 14.2469 14.0117C13.6116 14.6823 12.9057 15.2117 12.094 15.6353C11.3881 16.0235 10.6116 16.2705 9.83515 16.4117C9.44691 16.4823 9.05868 16.5176 8.67044 16.5529C8.24691 16.5529 7.82338 16.5529 7.43515 16.4823C6.58809 16.3764 5.74103 16.1294 4.96456 15.7411C4.85868 15.7058 4.7528 15.6353 4.64691 15.5647C4.61162 15.5647 4.61162 15.5647 4.57633 15.5647C3.76456 15.7764 2.9528 15.9882 2.14103 16.2C1.57633 16.4117 1.01162 16.5529 0.411621 16.7294ZM2.3175 14.8235C2.3528 14.8235 2.3528 14.8235 2.38809 14.8235C3.19986 14.6117 3.97633 14.4 4.78809 14.1882C4.82339 14.1882 4.85868 14.1882 4.85868 14.1882C5.10574 14.3294 5.3528 14.4705 5.59986 14.6117C6.30574 14.9294 7.01162 15.1411 7.78809 15.2117C8.21162 15.247 8.63515 15.247 9.09397 15.2117C9.55279 15.1764 10.0469 15.0705 10.4704 14.9294C11.741 14.5058 12.7999 13.8 13.6116 12.7411C14.4587 11.6823 14.9528 10.447 15.0587 9.07055C15.094 8.57643 15.0587 8.11761 14.9881 7.62349C14.8822 6.9882 14.7057 6.3882 14.4234 5.82349C14.0704 5.08232 13.5763 4.44702 12.9763 3.88232C12.4116 3.31761 11.7763 2.89408 11.0351 2.57643C10.1528 2.1882 9.19985 2.01173 8.21162 2.01173C7.85868 2.01173 7.54103 2.04702 7.18809 2.11761C6.5528 2.22349 5.9175 2.43526 5.3528 2.7529C4.7175 3.10585 4.1175 3.52938 3.62339 4.05879C3.12927 4.5529 2.74103 5.11761 2.42339 5.7529C2.03515 6.56467 1.78809 7.44702 1.7528 8.32937C1.7175 8.7529 1.7528 9.17643 1.82339 9.63526C1.89397 10.2 2.07044 10.7647 2.28221 11.2941C2.52927 11.647 2.74103 12 2.98809 12.3529C2.98809 12.3882 3.02339 12.3882 2.98809 12.4235C2.81162 13.0941 2.59986 13.8 2.42339 14.4705C2.38809 14.5764 2.3528 14.7176 2.3175 14.8235Z" fill="white"/>
<path d="M10.5765 12.4589C10.2235 12.4589 9.90589 12.3883 9.58824 12.2824C8.95295 12.0706 8.31765 11.8236 7.75295 11.4353C7.36471 11.1883 6.97648 10.8706 6.62354 10.553C6.09412 10.0589 5.6706 9.52944 5.24707 8.96474C5.0353 8.64709 4.82354 8.36474 4.68236 8.0118C4.54118 7.72944 4.4706 7.44709 4.4353 7.12944C4.36471 6.49415 4.50589 5.89415 4.92942 5.40003C5.00001 5.29415 5.10589 5.18827 5.21177 5.11768C5.35295 5.0118 5.49413 4.9765 5.6706 4.9765C5.81177 4.9765 5.95295 4.9765 6.12942 4.9765C6.2353 4.9765 6.30589 5.0118 6.37648 5.08238C6.44707 5.15297 6.48236 5.22356 6.51765 5.32944C6.72942 5.78827 6.90589 6.28238 7.11765 6.7765C7.11765 6.8118 7.15295 6.84709 7.15295 6.88238C7.18824 6.98827 7.18824 7.05885 7.11765 7.16474C6.97648 7.4118 6.8353 7.62356 6.62354 7.83533C6.58824 7.87062 6.55295 7.90591 6.55295 7.94121C6.48236 8.0118 6.48236 8.11768 6.51765 8.22356C6.58824 8.32944 6.65883 8.43533 6.72942 8.54121C6.94118 8.85886 7.15295 9.14121 7.40001 9.38827C7.71765 9.70591 8.0353 9.95297 8.42354 10.1647C8.70589 10.3412 8.98824 10.4824 9.2706 10.6236C9.2706 10.6236 9.30589 10.6236 9.30589 10.6589C9.44707 10.7294 9.55295 10.6941 9.65883 10.5883C9.8706 10.3412 10.1177 10.0589 10.2941 9.7765C10.3647 9.67062 10.4706 9.63533 10.6118 9.67062C10.7529 9.70591 10.8941 9.7765 11.0353 9.84709C11.4588 10.0236 11.8471 10.2353 12.2706 10.4471C12.3059 10.4471 12.3059 10.4824 12.3412 10.4824C12.4471 10.553 12.5177 10.6236 12.5177 10.7647C12.5177 11.0118 12.4824 11.2589 12.4118 11.4706C12.3412 11.6824 12.2 11.8589 12.0235 12C11.7412 12.2118 11.4588 12.3883 11.1059 12.4589C10.8588 12.4589 10.6824 12.4589 10.5765 12.4589Z" fill="white"/>
</svg>
