<svg width="208" height="30" viewBox="0 0 208 30" fill="none" xmlns="http://www.w3.org/2000/svg">
<path d="M7.76917 26.9554L8.42688 24.7632C5.71383 24.5602 3.6585 23.8295 2.17866 22.5305C0.739928 21.2314 0 19.567 0 17.4966C0 14.6549 1.151 12.341 3.41186 10.4736C5.67273 8.60622 8.67352 7.71312 12.4142 7.71312H13.5652L14.0996 6.00812H20.1423L19.6079 7.79431C22.3621 7.9567 24.4585 8.68741 25.9794 9.94587C27.4593 11.2043 28.2403 12.8687 28.2403 14.8579C28.2403 17.7402 27.0893 20.0947 24.8285 22.0027C22.5265 23.9107 19.5257 24.8444 15.8261 24.8444H14.5107L13.853 26.9959H7.76917V26.9554ZM9.86561 20.0541L12.1676 12.4222H11.7154C10.1123 12.4222 8.83794 12.8281 7.81028 13.6401C6.78261 14.452 6.24822 15.548 6.24822 16.9283C6.24822 17.862 6.57708 18.5927 7.23478 19.1204C7.85138 19.6482 8.75573 19.9729 9.86561 20.0541ZM15.8672 20.0541H16.5249C18.087 20.0541 19.4024 19.6482 20.43 18.8769C21.4577 18.1056 21.9921 17.0095 21.9921 15.6292C21.9921 14.6955 21.6632 13.9648 20.9644 13.4371C20.2656 12.8687 19.3613 12.5846 18.1692 12.5034L15.8672 20.0541Z" fill="white"/>
<path d="M27.9937 26.1028L33.7897 6.77942H39.7091L36.4616 17.659L48.0948 6.77942H53.6853L47.8893 26.1028H41.9699L45.2174 15.2233L33.5842 26.1028H27.9937Z" fill="white"/>
<path d="M49.1636 30L51.7122 21.4344H53.4798C54.7541 19.9323 55.8229 18.3491 56.6861 16.6847C57.5904 15.0203 58.4948 12.544 59.4814 9.21513L60.1802 6.82001H76.9517L72.5533 21.4344H74.9786L71.7312 30H66.675L67.8671 26.1434H56.0695L54.5074 30H49.1636ZM59.8924 21.4344H66.5928L69.6347 11.3667H64.6197L63.962 13.2747C62.8521 16.6035 61.4956 19.3234 59.8924 21.4344Z" fill="white"/>
<path d="M73.252 26.1028L84.7207 14.3708L79.9112 6.77942H86.4472L90.8867 14.7767L93.312 6.77942H99.3136L97.0116 14.5737L105.726 6.77942H113.167L103.137 15.1015L107.576 26.1028H100.917L98.1215 18.8363L94.9974 21.3126L93.5587 26.1028H87.5571L89.1191 20.9472L87.6804 18.7145L80.9389 26.1028H73.252Z" fill="white"/>
<path d="M109.467 26.1028L115.263 6.77942H121.183L117.935 17.659L129.568 6.77942H135.159L129.363 26.1028H123.444L126.691 15.2233L115.058 26.1028H109.467Z" fill="white"/>
<path d="M134.46 26.1029L140.092 7.34778H148.971C150.903 7.34778 152.424 7.71314 153.575 8.48445C154.726 9.25576 155.301 10.2706 155.301 11.6103C155.301 12.9094 154.767 13.9648 153.739 14.8173C152.711 15.6698 151.355 16.1976 149.711 16.5223C150.903 16.7659 151.848 17.2531 152.629 17.9432C153.369 18.6739 153.78 19.5264 153.78 20.5819C153.78 22.2057 152.999 23.5048 151.396 24.5602C149.834 25.5751 147.696 26.1029 144.983 26.1029H134.46ZM136.967 24.5196H144.819C146.915 24.5196 148.56 24.1543 149.793 23.4642C151.026 22.7334 151.643 21.7592 151.643 20.5413C151.643 19.5264 151.149 18.7551 150.163 18.1868C149.176 17.6184 147.902 17.3343 146.34 17.3343H139.187L136.967 24.5196ZM139.598 15.751H146.34C148.354 15.751 149.998 15.3857 151.231 14.655C152.465 13.9242 153.081 12.9499 153.081 11.7727C153.081 9.90529 151.56 8.9716 148.518 8.9716H141.654L139.598 15.751Z" fill="white"/>
<path d="M168.537 26.5494C165.824 26.5494 163.646 25.8187 161.96 24.3573C160.275 22.8958 159.412 20.9879 159.412 18.6739C159.412 15.6699 160.604 12.95 162.988 10.5142C165.372 8.11911 168.25 6.90125 171.579 6.90125C174.087 6.90125 176.06 7.59136 177.457 8.97161C178.855 10.3519 179.554 12.0569 179.554 14.0866C179.554 15.3045 179.348 16.36 178.978 17.3749H161.714C161.672 17.9026 161.631 18.3492 161.631 18.6333C161.631 20.5413 162.289 22.0433 163.563 23.18C164.838 24.3167 166.523 24.885 168.578 24.885C171.086 24.885 173.47 24.0325 175.731 22.3681L176.923 23.6672C174.292 25.5751 171.538 26.5494 168.537 26.5494ZM162.042 15.751H177.293C177.416 15.3045 177.457 14.7768 177.457 14.2084C177.457 12.5846 176.964 11.245 175.937 10.1895C174.95 9.13399 173.47 8.60625 171.497 8.60625C169.236 8.60625 167.263 9.29638 165.537 10.6766C163.851 12.0163 162.659 13.7213 162.042 15.751Z" fill="white"/>
<path d="M196.244 7.51015C199.039 7.51015 201.3 8.24087 203.026 9.7023C204.753 11.1637 205.616 13.1123 205.616 15.4669C205.616 18.3491 204.342 20.9472 201.793 23.18C199.244 25.4127 196.449 26.5494 193.407 26.5494C190.324 26.5494 187.981 25.7781 186.378 24.2355C184.775 22.6928 183.953 20.7037 183.953 18.2273C183.953 17.0907 184.076 15.9134 184.281 14.6955C184.487 13.4777 184.898 12.1786 185.474 10.839C186.049 9.45873 186.748 8.24087 187.57 7.1042C188.392 6.00812 189.461 4.99324 190.776 4.14073C192.092 3.28823 193.572 2.6793 195.216 2.35454L207.548 0L208 1.62382L195.832 4.05954C193.572 4.50609 191.763 5.318 190.447 6.45467C189.132 7.59134 188.104 9.17456 187.364 11.2043H187.529C189.913 8.72801 192.832 7.51015 196.244 7.51015ZM195.956 9.13397C193.325 9.13397 191.023 10.0677 189.05 11.8945C187.077 13.7213 186.09 15.8728 186.09 18.3897C186.09 20.2977 186.707 21.8403 187.981 23.0582C189.214 24.2761 191.023 24.885 193.407 24.885C195.874 24.885 198.176 23.9107 200.231 22.0027C202.327 20.0947 203.355 17.9026 203.355 15.4263C203.355 13.4777 202.697 11.9756 201.382 10.839C200.108 9.7023 198.299 9.13397 195.956 9.13397Z" fill="white"/>
</svg>
