<svg width="28" height="21" viewBox="0 0 28 21" fill="none" xmlns="http://www.w3.org/2000/svg">
<g filter="url(#filter0_d_401_54)">
<path d="M10.5 12.5C10.5 12.5 10.814 11.7679 11 11.5C11.9767 10.1607 12.4651 9.51786 13.4419 8.17857C13.4884 8.08929 13.5349 8 13.6279 8C14.4186 8.26786 15.2093 8.58036 16 8.89286C15.5814 9.20536 15.1628 9.51786 14.7442 9.78571C13.2558 10.8125 12.9884 10.9286 11.5 12C11.5 12 10.5018 12.496 10.5 12.5Z" fill="#477AE6"/>
</g>
<g filter="url(#filter1_d_401_54)">
<path d="M24 0C23.9254 0.314062 23.7763 0.628124 23.6644 0.942185C22.4339 4.23983 21.1661 7.56889 19.8983 10.8665C19.8237 11.0236 19.8237 11.0236 19.6373 10.9608C18.1085 10.4583 16.5797 9.98717 15.0508 9.48467C15.0136 9.45326 14.939 9.45326 14.9017 9.45326C14.2678 9.23342 13.6339 9.04498 13 8.82514C13 8.76232 13.0373 8.73092 13.1119 8.69951C13.6712 8.25983 14.1932 7.82014 14.7525 7.38045C15.4237 6.84655 16.0949 6.31264 16.7661 5.74733C17.6237 5.0564 18.5186 4.36546 19.3763 3.64312C20.2339 2.95218 21.0542 2.29265 21.9119 1.60172C22.1356 1.41328 22.3966 1.22484 22.6203 1.0364C23.0678 0.722342 23.5153 0.345468 24 0C24 0 23.9627 0 24 0Z" fill="white"/>
</g>
<g filter="url(#filter2_d_401_54)">
<path d="M10.5461 8.00006C8.37613 7.2766 6.20615 6.5846 4 5.86114C4.07233 5.79823 4.14467 5.79823 4.217 5.76677C6.02532 5.23204 7.79747 4.72876 9.60579 4.19403C13.5841 3.0302 17.5624 1.86638 21.5407 0.702551C22.3002 0.482368 23.0597 0.262184 23.8192 0.0420008C23.8553 0.0420008 23.9277 -0.0523636 24 0.0420008C23.9638 0.0734556 23.8915 0.0734552 23.8553 0.10491C23.0597 0.608186 22.264 1.04855 21.4684 1.55183C19.5515 2.6842 17.5986 3.84803 15.6817 4.9804C14.7414 5.54659 13.8373 6.08132 12.8969 6.6475C12.1013 7.08787 11.3418 7.52824 10.5461 8.00006Z" fill="white"/>
</g>
<g filter="url(#filter3_d_401_54)">
<path d="M10.5241 8C11.3102 7.50882 11.6471 7.36776 12.4332 6.87657C13.4064 6.28715 14.3422 5.73048 15.3155 5.14106C17.2995 3.96222 19.3209 2.75063 21.3048 1.57179C22.1283 1.0806 22.9519 0.589421 23.7754 0.0654914C23.8128 0.0327458 23.8877 0 23.9251 0C23.9626 0 23.9626 1.22935e-07 24 0.0327457C23.5508 0.425693 23.1016 0.785894 22.6524 1.17884C22.4278 1.37531 22.1658 1.57179 21.9412 1.76826C21.0802 2.48866 20.2567 3.17632 19.3957 3.89673C18.5348 4.61713 17.6364 5.33753 16.7754 6.09068C16.1016 6.64735 15.4278 7.20403 14.754 7.79345C14.1925 8.25189 13.6684 8.71033 13.107 9.16877C13.0695 9.20151 12.9947 9.29975 12.9947 9.29975L12.4332 9.9352L12 10.5C11.8503 10.6965 10.5 12.5 10.5 12.5V12C10.5 11.4106 10.5 11.5894 10.5 11C10.5 11 10.5615 8.94962 10.5241 8Z" fill="#D0DFFF"/>
</g>
<defs>
<filter id="filter0_d_401_54" x="6.5" y="8" width="13.5" height="12.5" filterUnits="userSpaceOnUse" color-interpolation-filters="sRGB">
<feFlood flood-opacity="0" result="BackgroundImageFix"/>
<feColorMatrix in="SourceAlpha" type="matrix" values="0 0 0 0 0 0 0 0 0 0 0 0 0 0 0 0 0 0 127 0" result="hardAlpha"/>
<feOffset dy="4"/>
<feGaussianBlur stdDeviation="2"/>
<feComposite in2="hardAlpha" operator="out"/>
<feColorMatrix type="matrix" values="0 0 0 0 0 0 0 0 0 0 0 0 0 0 0 0 0 0 0.25 0"/>
<feBlend mode="normal" in2="BackgroundImageFix" result="effect1_dropShadow_401_54"/>
<feBlend mode="normal" in="SourceGraphic" in2="effect1_dropShadow_401_54" result="shape"/>
</filter>
<filter id="filter1_d_401_54" x="9" y="0" width="19" height="19" filterUnits="userSpaceOnUse" color-interpolation-filters="sRGB">
<feFlood flood-opacity="0" result="BackgroundImageFix"/>
<feColorMatrix in="SourceAlpha" type="matrix" values="0 0 0 0 0 0 0 0 0 0 0 0 0 0 0 0 0 0 127 0" result="hardAlpha"/>
<feOffset dy="4"/>
<feGaussianBlur stdDeviation="2"/>
<feComposite in2="hardAlpha" operator="out"/>
<feColorMatrix type="matrix" values="0 0 0 0 0 0 0 0 0 0 0 0 0 0 0 0 0 0 0.25 0"/>
<feBlend mode="normal" in2="BackgroundImageFix" result="effect1_dropShadow_401_54"/>
<feBlend mode="normal" in="SourceGraphic" in2="effect1_dropShadow_401_54" result="shape"/>
</filter>
<filter id="filter2_d_401_54" x="0" y="6.10352e-05" width="28" height="16" filterUnits="userSpaceOnUse" color-interpolation-filters="sRGB">
<feFlood flood-opacity="0" result="BackgroundImageFix"/>
<feColorMatrix in="SourceAlpha" type="matrix" values="0 0 0 0 0 0 0 0 0 0 0 0 0 0 0 0 0 0 127 0" result="hardAlpha"/>
<feOffset dy="4"/>
<feGaussianBlur stdDeviation="2"/>
<feComposite in2="hardAlpha" operator="out"/>
<feColorMatrix type="matrix" values="0 0 0 0 0 0 0 0 0 0 0 0 0 0 0 0 0 0 0.25 0"/>
<feBlend mode="normal" in2="BackgroundImageFix" result="effect1_dropShadow_401_54"/>
<feBlend mode="normal" in="SourceGraphic" in2="effect1_dropShadow_401_54" result="shape"/>
</filter>
<filter id="filter3_d_401_54" x="6.5" y="0" width="21.5" height="20.5" filterUnits="userSpaceOnUse" color-interpolation-filters="sRGB">
<feFlood flood-opacity="0" result="BackgroundImageFix"/>
<feColorMatrix in="SourceAlpha" type="matrix" values="0 0 0 0 0 0 0 0 0 0 0 0 0 0 0 0 0 0 127 0" result="hardAlpha"/>
<feOffset dy="4"/>
<feGaussianBlur stdDeviation="2"/>
<feComposite in2="hardAlpha" operator="out"/>
<feColorMatrix type="matrix" values="0 0 0 0 0 0 0 0 0 0 0 0 0 0 0 0 0 0 0.25 0"/>
<feBlend mode="normal" in2="BackgroundImageFix" result="effect1_dropShadow_401_54"/>
<feBlend mode="normal" in="SourceGraphic" in2="effect1_dropShadow_401_54" result="shape"/>
</filter>
</defs>
</svg>
