<svg width="20" height="13" viewBox="0 0 20 13" fill="none" xmlns="http://www.w3.org/2000/svg">
<path d="M6.5 12.5C6.5 12.5 6.81395 11.7679 7 11.5C7.97674 10.1607 8.46512 9.51786 9.44186 8.17857C9.48837 8.08929 9.53488 8 9.62791 8C10.4186 8.26786 11.2093 8.58036 12 8.89286C11.5814 9.20536 11.1628 9.51786 10.7442 9.78571C9.25581 10.8125 8.98837 10.9286 7.5 12C7.5 12 6.50178 12.496 6.5 12.5Z" fill="#477AE6"/>
<path d="M20 0C19.9254 0.314062 19.7763 0.628124 19.6644 0.942185C18.4339 4.23983 17.1661 7.56889 15.8983 10.8665C15.8237 11.0236 15.8237 11.0236 15.6373 10.9608C14.1085 10.4583 12.5797 9.98717 11.0508 9.48467C11.0136 9.45326 10.939 9.45326 10.9017 9.45326C10.2678 9.23342 9.6339 9.04498 9 8.82514C9 8.76233 9.03729 8.73092 9.11187 8.69951C9.67119 8.25983 10.1932 7.82014 10.7525 7.38045C11.4237 6.84655 12.0949 6.31264 12.7661 5.74733C13.6237 5.0564 14.5186 4.36546 15.3763 3.64312C16.2339 2.95218 17.0542 2.29265 17.9119 1.60172C18.1356 1.41328 18.3966 1.22484 18.6203 1.0364C19.0678 0.722342 19.5153 0.345468 20 0C19.9627 0 20 0 20 0Z" fill="white"/>
<path d="M6.54611 8.00006C4.37613 7.2766 2.20615 6.5846 0 5.86114C0.0723327 5.79823 0.144666 5.79823 0.216998 5.76677C2.02532 5.23204 3.79747 4.72876 5.60579 4.19403C9.58409 3.0302 13.5624 1.86638 17.5407 0.702551C18.3002 0.482368 19.0597 0.262184 19.8192 0.0420008C19.8553 0.0420008 19.9277 -0.0523636 20 0.0420008C19.9638 0.0734556 19.8915 0.0734552 19.8553 0.10491C19.0597 0.608186 18.264 1.04855 17.4684 1.55183C15.5515 2.6842 13.5986 3.84803 11.6817 4.9804C10.7414 5.54659 9.83725 6.08132 8.89692 6.6475C8.10126 7.08787 7.34177 7.52824 6.54611 8.00006Z" fill="white"/>
<path d="M6.52406 8C7.31016 7.50882 7.64706 7.36776 8.43316 6.87657C9.40642 6.28715 10.3422 5.73048 11.3155 5.14106C13.2995 3.96222 15.3209 2.75063 17.3048 1.57179C18.1283 1.0806 18.9519 0.589421 19.7754 0.0654914C19.8128 0.0327458 19.8877 0 19.9251 0C19.9626 0 19.9626 1.22935e-07 20 0.0327457C19.5508 0.425693 19.1016 0.785894 18.6524 1.17884C18.4278 1.37531 18.1658 1.57179 17.9412 1.76826C17.0802 2.48866 16.2567 3.17632 15.3957 3.89673C14.5348 4.61713 13.6364 5.33753 12.7754 6.09068C12.1016 6.64735 11.4278 7.20403 10.754 7.79345C10.1925 8.25189 9.66845 8.71033 9.10695 9.16877C9.06952 9.20151 8.99465 9.29975 8.99465 9.29975L8.43316 9.9352L8 10.5C7.85027 10.6965 6.5 12.5 6.5 12.5V12C6.5 11.4106 6.5 11.5894 6.5 11C6.5 11 6.5615 8.94962 6.52406 8Z" fill="#D0DFFF"/>
</svg>
