<svg width="20" height="20" viewBox="0 0 20 20" fill="none" xmlns="http://www.w3.org/2000/svg">
<path d="M10.0003 0.84026C6.24787 0.84026 2.68461 0.506451 1.32353 3.99952C0.761328 5.44221 0.843008 7.31587 0.843008 9.99864C0.843008 12.3528 0.767539 14.5654 1.32353 15.9968C2.6815 19.4919 6.27371 19.157 9.99828 19.157C13.5915 19.157 17.2965 19.5311 18.674 15.9968C19.2372 14.5396 19.1545 12.6939 19.1545 9.99864C19.1545 6.42085 19.3519 4.11114 17.6167 2.377C15.8599 0.620123 13.484 0.84026 9.99617 0.84026H10.0003ZM9.17978 2.49067C17.0071 2.47825 18.0033 1.60813 17.4535 13.6963C17.2582 17.9717 14.0029 17.5025 10.0013 17.5025C2.70523 17.5025 2.49541 17.2937 2.49541 9.99454C2.49541 2.61061 3.07414 2.49483 9.17972 2.48862L9.17978 2.49067ZM14.8885 4.01089C14.2819 4.01089 13.7899 4.50278 13.7899 5.10946C13.7899 5.71608 14.2818 6.20803 14.8885 6.20803C15.4952 6.20803 15.9871 5.71614 15.9871 5.10946C15.9871 4.50278 15.4951 4.01089 14.8885 4.01089ZM10.0003 5.29544C7.40328 5.29544 5.29818 7.40159 5.29818 9.99864C5.29818 12.5957 7.40328 14.7008 10.0003 14.7008C12.5974 14.7008 14.7015 12.5957 14.7015 9.99864C14.7015 7.40159 12.5974 5.29544 10.0003 5.29544ZM10.0003 6.94585C14.0359 6.94585 14.0411 13.0514 10.0003 13.0514C5.96574 13.0514 5.95959 6.94585 10.0003 6.94585Z" fill="white"/>
</svg>
