<svg width="18" height="10" viewBox="0 0 18 10" fill="none" xmlns="http://www.w3.org/2000/svg">
<path d="M6.23655 0.920326C6.47637 0.792049 6.71062 0.56896 6.95601 0.557805C7.87068 0.50761 8.78535 0.485301 9.70002 0.535496C10.2131 0.563382 10.3637 0.780895 10.3749 1.31073C10.3916 1.98558 10.3526 2.65485 10.3526 3.3297C10.3526 3.70337 10.347 4.0882 10.4195 4.44514C10.5143 4.8969 10.8601 5.00845 11.1389 4.64593C11.7246 3.88184 12.2488 3.06756 12.7731 2.25329C12.9683 1.95212 13.0798 1.60075 13.2193 1.26612C13.3364 0.981676 13.5204 0.842245 13.8383 0.847822C14.7084 0.858977 15.5729 0.842245 16.4429 0.842245C17.0676 0.842245 17.2795 1.10438 16.9672 1.63421C16.4429 2.53773 15.8183 3.37989 15.2326 4.24436C15.0653 4.48976 14.8645 4.71285 14.6917 4.95825C14.3236 5.48809 14.3459 5.72233 14.7976 6.17967C15.3553 6.73739 15.9242 7.28954 16.4708 7.85842C16.6548 8.05362 16.811 8.28787 16.9449 8.51653C17.2237 8.99618 17.0954 9.32523 16.5433 9.41447C16.0469 9.49255 15.5394 9.46466 15.0374 9.4814C14.7251 9.49255 14.4184 9.49255 14.106 9.49255C13.6376 9.49813 13.2471 9.3085 12.9181 9.00175C12.5946 8.70058 12.3102 8.36595 12.0034 8.05362C11.8249 7.86957 11.6409 7.67995 11.4345 7.52936C11.0888 7.27838 10.7876 7.33973 10.6147 7.73572C10.4864 8.03689 10.4139 8.3771 10.386 8.70616C10.3302 9.3085 10.1852 9.44793 9.57174 9.4814C7.3018 9.60409 5.53939 8.68385 4.16182 6.92144C2.86232 5.25942 1.88072 3.41335 1.0051 1.50594C0.815469 1.09322 0.943746 0.881285 1.3955 0.870131C2.18747 0.847822 2.97386 0.853399 3.76583 0.864553C4.09489 0.870131 4.24547 1.10995 4.38491 1.37208C4.84224 2.24213 5.30515 3.10661 5.79595 3.95435C5.94096 4.2109 6.14731 4.43399 6.35925 4.64593C6.75523 5.04191 7.07314 4.94152 7.19584 4.38937C7.24603 4.17744 7.27392 3.95435 7.27949 3.73683C7.29065 3.27392 7.29623 2.80543 7.27949 2.34252C7.25161 1.53382 7.06756 1.30516 6.30348 1.06533C6.26444 1.00956 6.25328 0.964944 6.23655 0.920326Z" fill="white"/>
</svg>
